<?xml version="1.0" standalone="no"?><!DOCTYPE svg PUBLIC "-//W3C//DTD SVG 1.1//EN" "http://www.w3.org/Graphics/SVG/1.1/DTD/svg11.dtd"><svg t="1764058551424" class="icon" viewBox="0 0 1024 1024" version="1.1" xmlns="http://www.w3.org/2000/svg" p-id="9897" xmlns:xlink="http://www.w3.org/1999/xlink" width="200" height="200"><path d="M512 512m-512 0a512 512 0 1 0 1024 0 512 512 0 1 0-1024 0Z" fill="#B6ECFF" p-id="9898"></path><path d="M402.944 472.576l-96.768 228.352H148.992l6.656-15.872 221.696-259.584zM314.368 311.808l1.536 3.072-2.048-2.048z" fill="#A03EC3" p-id="9899"></path><path d="M717.824 312.832l-15.872 192.512-76.8 84.992-22.528-40.96z" fill="#3B9FE6" p-id="9900"></path><path d="M873.984 314.368l-187.392 386.56-1.024-1.024 16.384-194.56z" fill="#20ADEC" p-id="9901"></path><path d="M685.568 699.904l1.024 1.024h-1.024z" fill="#A03EC3" p-id="9902"></path><path d="M875.008 311.808l-1.024 2.56-172.032 190.976 15.872-192.512v-1.024z" fill="#3AB6ED" p-id="9903"></path><path d="M471.552 311.808l-3.072 7.168-70.144 81.92-82.432-86.016-1.536-3.072z" fill="#7C58B8" p-id="9904"></path><path d="M472.576 314.368l-4.096 4.608 3.072-7.168z" fill="#A03EC3" p-id="9905"></path><path d="M602.624 549.376l-20.992 43.52-81.408-84.992-27.136-193.024z" fill="#5E88DE" p-id="9906"></path><path d="M527.36 697.344L402.944 472.576l19.968-46.08 77.312 81.408z" fill="#7876D7" p-id="9907"></path><path d="M685.056 700.928h-155.648l4.096-8.704 69.632-77.312z" fill="#0447C1" p-id="9908"></path><path d="M527.872 698.368l5.632-6.144-4.096 8.704z" fill="#A03EC3" p-id="9909"></path><path d="M625.152 590.336l-22.016 24.576-21.504-22.016 20.992-43.52z" fill="#3C67CA" p-id="9910"></path><path d="M686.592 700.928h-1.024v-1.024z" fill="#A03EC3" p-id="9911"></path><path d="M377.344 425.472l-221.696 259.584 158.208-372.224 2.048 2.048z" fill="#B64AC6" p-id="9912"></path><path d="M422.912 426.496l-19.968 46.08-25.6-47.104 20.992-24.576z" fill="#572FAA" p-id="9913"></path><path d="M398.336 400.896l-20.992 24.576-61.44-110.592z" fill="#7241AE" p-id="9914"></path><path d="M468.48 318.976l-45.568 107.52-24.576-25.6z" fill="#6249B6" p-id="9915"></path><path d="M500.224 507.904L422.912 426.496l45.568-107.52 4.096-4.608 0.512 0.512z" fill="#8E7FDA" p-id="9916"></path><path d="M701.952 505.344l-16.384 194.56-60.416-109.568z" fill="#2890E2" p-id="9917"></path><path d="M581.632 592.896l-48.128 99.328-5.632 6.144-0.512-1.024-27.136-189.44z" fill="#5375D8" p-id="9918"></path><path d="M603.136 614.912l-69.632 77.312 48.128-99.328z" fill="#2B4FC0" p-id="9919"></path><path d="M685.568 699.904v1.024h-0.512l-81.92-86.016 22.016-24.576z" fill="#205DC9" p-id="9920"></path></svg>